<?xml version="1.0" standalone="no"?>
<!DOCTYPE svg PUBLIC "-//W3C//DTD SVG 20010904//EN"
 "http://www.w3.org/TR/2001/REC-SVG-20010904/DTD/svg10.dtd">
<svg version="1.0" xmlns="http://www.w3.org/2000/svg"
 width="168.000000pt" height="74.000000pt" viewBox="0 0 168.000000 74.000000"
 preserveAspectRatio="xMidYMid meet">

<g transform="translate(0.000000,74.000000) scale(0.100000,-0.100000)"
fill="#000000" stroke="none">
<path d="M28 714 c-17 -5 -18 -25 -18 -239 l0 -234 36 -7 c54 -10 165 1 201
20 46 23 65 57 65 117 0 54 -24 92 -71 110 l-23 9 26 21 c58 45 51 146 -13
183 -33 19 -162 32 -203 20z m172 -69 c20 -18 26 -58 14 -90 -9 -23 -57 -45
-99 -45 l-35 0 0 81 0 82 50 -5 c28 -3 59 -13 70 -23z m27 -219 c50 -58 15
-128 -71 -141 -73 -11 -76 -8 -76 91 l0 86 62 -4 c51 -4 65 -9 85 -32z"/>
<path d="M763 599 c-29 -31 -53 -59 -53 -62 0 -3 10 -7 23 -9 21 -3 22 -7 25
-118 1 -63 7 -125 14 -138 25 -48 138 -55 138 -9 0 20 -4 23 -28 19 -52 -7
-62 15 -62 139 l0 109 45 0 c38 0 45 3 45 20 0 17 -7 20 -44 20 l-45 0 -3 43
-3 43 -52 -57z"/>
<path d="M1038 567 c-21 -12 -45 -32 -53 -45 -15 -20 -13 -27 18 -95 19 -40
46 -83 62 -95 41 -33 135 -29 135 5 0 12 -8 13 -41 8 -58 -10 -81 6 -119 85
-37 77 -35 86 24 114 91 43 169 6 230 -109 l27 -50 -6 50 c-6 58 -43 111 -96
137 -50 26 -135 24 -181 -5z"/>
<path d="M427 573 c-12 -3 -17 -12 -15 -26 3 -20 8 -22 61 -19 69 5 107 -15
107 -53 0 -23 -4 -25 -45 -25 -124 0 -196 -99 -130 -178 31 -36 80 -47 171
-37 l64 7 0 128 c0 146 -7 173 -49 195 -28 14 -122 19 -164 8z m153 -233 l0
-60 -50 0 c-62 0 -95 27 -85 68 9 38 32 52 87 52 l48 0 0 -60z"/>
<path d="M1380 411 l0 -171 30 0 30 0 0 83 c1 141 22 190 86 203 25 5 37 1 53
-15 19 -19 21 -32 21 -146 l0 -125 30 0 30 0 0 141 0 141 -29 29 c-39 38 -101
40 -154 5 l-36 -25 -3 22 c-2 16 -11 23 -30 25 l-28 3 0 -170z"/>
<path d="M1083 513 c-7 -2 -13 -11 -13 -20 0 -12 8 -13 39 -8 56 9 76 -6 116
-85 l35 -70 -20 -20 c-28 -28 -63 -40 -114 -40 -62 0 -104 32 -144 110 l-33
65 4 -52 c7 -94 81 -157 182 -156 57 0 97 18 138 61 l28 30 -40 81 c-29 57
-50 85 -70 96 -29 14 -83 19 -108 8z"/>
</g>
</svg>
