<?xml version="1.0" standalone="no"?>
<!DOCTYPE svg PUBLIC "-//W3C//DTD SVG 20010904//EN"
 "http://www.w3.org/TR/2001/REC-SVG-20010904/DTD/svg10.dtd">
<svg version="1.0" xmlns="http://www.w3.org/2000/svg"
 width="1260.000000pt" height="1260.000000pt" viewBox="0 0 1260.000000 1260.000000"
 preserveAspectRatio="xMidYMid meet">

<g transform="translate(0.000000,1260.000000) scale(0.100000,-0.100000)"
fill="#000000" stroke="none">
<path d="M6150 11270 l0 -120 70 0 70 0 0 120 0 120 -70 0 -70 0 0 -120z"/>
<path d="M6716 11324 c-3 -26 -6 -80 -6 -120 0 -71 1 -74 23 -74 22 0 24 5 34
112 6 62 9 116 7 120 -3 5 -16 8 -28 8 -20 0 -24 -6 -30 -46z"/>
<path d="M5665 11339 c-12 -18 16 -217 31 -223 27 -10 46 5 41 33 -3 14 -8 55
-12 91 -9 98 -13 110 -35 110 -10 0 -22 -5 -25 -11z"/>
<path d="M7232 11183 c-21 -109 -19 -128 14 -121 14 2 21 23 35 93 24 124 24
135 -4 135 -22 0 -25 -8 -45 -107z"/>
<path d="M5143 11249 c-16 -16 38 -223 59 -227 9 -2 19 1 22 7 6 9 -29 205
-40 223 -7 11 -28 10 -41 -3z"/>
<path d="M7740 11060 c-18 -55 -30 -106 -26 -115 8 -21 43 -19 50 3 3 9 17 56
31 104 27 91 26 108 -5 108 -15 0 -25 -20 -50 -100z"/>
<path d="M4634 11097 c-7 -20 56 -217 70 -217 6 0 17 4 25 9 11 7 7 28 -22
112 -35 100 -59 132 -73 96z"/>
<path d="M8263 10963 c-3 -10 -22 -56 -40 -102 -31 -76 -33 -85 -19 -99 10
-10 19 -13 25 -7 18 19 92 198 87 212 -8 19 -46 16 -53 -4z"/>
<path d="M6239 10915 c-36 -7 -97 -29 -136 -48 -56 -28 -77 -46 -106 -89 -40
-58 -69 -155 -50 -166 6 -4 45 -6 86 -4 l75 4 6 33 c16 84 90 125 237 133 112
5 184 -8 238 -44 90 -59 78 -189 -22 -238 -22 -10 -84 -31 -138 -47 -300 -87
-451 -222 -467 -415 l-5 -64 429 7 c294 4 431 9 437 17 4 6 6 38 5 71 l-3 60
-322 -4 c-225 -2 -323 0 -323 8 0 6 21 31 48 56 55 54 166 111 243 125 142 27
279 112 321 199 33 68 31 159 -4 231 -32 66 -65 99 -134 134 -102 53 -272 69
-415 41z"/>
<path d="M4141 10901 c-11 -7 -4 -28 34 -110 47 -98 62 -114 83 -88 7 8 -3 40
-34 107 -42 94 -56 108 -83 91z"/>
<path d="M5698 10883 l-57 -4 6 -252 c3 -139 8 -344 12 -457 l6 -205 69 2 c37
1 72 5 76 10 7 8 -7 878 -15 901 -2 6 -12 11 -22 10 -10 -1 -44 -3 -75 -5z"/>
<path d="M8696 10732 c-13 -21 -38 -66 -55 -100 l-31 -62 25 -15 c14 -8 36
-22 50 -30 13 -8 30 -15 37 -15 10 0 100 148 116 191 2 5 -9 14 -23 19 -15 6
-40 19 -55 30 -16 11 -31 20 -34 20 -3 0 -17 -17 -30 -38z"/>
<path d="M3683 10657 c-29 -18 -53 -38 -53 -45 0 -7 13 -32 29 -55 15 -23 38
-61 50 -84 24 -48 36 -51 90 -24 66 34 67 39 10 132 -70 117 -65 113 -126 76z"/>
<path d="M9182 10429 c-9 -17 -36 -57 -59 -88 -31 -43 -39 -61 -30 -70 22 -22
37 -10 96 78 45 66 57 91 48 100 -19 19 -37 12 -55 -20z"/>
<path d="M3234 10346 c-5 -13 112 -186 126 -186 18 0 40 13 40 24 0 6 -27 44
-60 85 -33 41 -60 78 -60 83 0 14 -40 9 -46 -6z"/>
<path d="M8307 10293 l-58 -4 7 -447 c3 -246 7 -453 10 -460 3 -9 23 -11 74
-8 39 2 73 6 76 9 3 2 1 209 -3 458 -9 517 5 459 -106 452z"/>
<path d="M4465 10221 c-6 -6 -8 -100 -4 -243 4 -128 7 -322 8 -431 0 -113 5
-207 11 -217 9 -17 19 -19 77 -15 36 2 68 6 70 9 6 5 -16 876 -22 894 -5 14
-126 17 -140 3z"/>
<path d="M3838 10208 c-5 -17 11 -778 18 -845 l5 -53 76 0 75 0 -7 273 c-4
149 -10 353 -14 452 l-6 180 -71 3 c-52 2 -73 -1 -76 -10z"/>
<path d="M9557 10053 c-70 -79 -79 -99 -50 -110 12 -5 24 4 42 28 14 18 46 55
70 81 27 30 41 53 37 63 -10 28 -32 15 -99 -62z"/>
<path d="M2841 10017 c-20 -20 -12 -35 63 -114 64 -68 76 -76 90 -64 24 20 20
30 -27 72 -24 20 -54 54 -68 73 -28 41 -42 49 -58 33z"/>
<path d="M9927 9687 c-70 -65 -76 -74 -64 -91 12 -17 16 -16 58 19 80 66 122
113 116 130 -11 26 -30 16 -110 -58z"/>
<path d="M2465 9623 c-7 -18 11 -37 124 -131 41 -35 44 -35 57 -17 17 23 14
27 -79 107 -71 61 -91 69 -102 41z"/>
<path d="M9629 9298 c-53 -46 -132 -112 -174 -148 -75 -62 -223 -188 -275
-234 -14 -12 -52 -44 -85 -71 -33 -28 -96 -81 -141 -120 -44 -38 -120 -104
-169 -145 -48 -41 -106 -91 -129 -110 -23 -20 -66 -56 -96 -80 -30 -24 -78
-65 -106 -90 -28 -25 -86 -74 -129 -110 -42 -36 -98 -83 -124 -105 -25 -23
-91 -79 -146 -125 -55 -46 -105 -88 -110 -94 -6 -6 -35 -31 -65 -55 -30 -25
-66 -55 -80 -67 -14 -13 -65 -57 -115 -99 -110 -93 -235 -199 -284 -241 -45
-39 -438 -372 -545 -462 -44 -37 -100 -85 -125 -107 -25 -23 -71 -61 -101 -85
-30 -25 -72 -62 -95 -82 -39 -36 -55 -46 -55 -31 0 8 64 235 162 577 37 132
68 249 68 262 0 18 -8 26 -40 35 -25 8 -44 9 -50 3 -5 -5 -21 -52 -36 -104
-14 -52 -43 -149 -64 -215 -21 -66 -48 -151 -59 -190 -12 -38 -44 -145 -72
-236 l-52 -166 -59 -7 c-32 -3 -67 -10 -78 -16 -21 -11 -73 17 -310 166 -74
46 -172 107 -218 134 -46 28 -113 70 -150 93 -37 24 -92 58 -122 77 -30 18
-117 72 -193 119 -205 128 -309 193 -437 271 -63 39 -153 95 -200 124 -47 29
-143 89 -215 133 -71 43 -190 116 -263 161 -73 45 -138 82 -145 82 -16 0 -117
-158 -111 -173 2 -7 37 -33 77 -59 39 -26 206 -139 369 -250 164 -112 332
-227 375 -255 43 -29 110 -75 148 -102 39 -26 147 -100 240 -163 235 -158 591
-401 851 -580 l92 -62 7 -60 6 -59 -161 -163 c-112 -113 -160 -167 -154 -176
17 -28 110 -128 119 -128 9 0 49 29 284 208 46 35 86 61 88 58 7 -7 -3 -47
-82 -316 -35 -118 -82 -280 -105 -360 -88 -303 -114 -390 -167 -565 -30 -99
-61 -202 -68 -230 -11 -47 -50 -175 -197 -653 -32 -106 -70 -232 -84 -280 -13
-48 -47 -157 -73 -242 -27 -85 -81 -263 -121 -395 -40 -132 -99 -325 -132
-430 -33 -104 -64 -203 -69 -220 -91 -302 -87 -285 -65 -285 8 0 21 20 29 48
8 26 47 153 87 282 64 207 183 590 224 720 8 25 39 124 69 220 31 96 84 270
120 385 167 542 211 684 268 865 34 107 67 219 74 248 7 29 43 146 79 260 36
114 95 306 131 427 36 121 85 283 109 360 l43 140 70 6 c39 4 86 14 106 24
l36 17 138 -77 c76 -43 173 -97 216 -121 42 -24 81 -44 86 -44 8 0 43 49 104
147 l27 42 -23 22 c-12 12 -53 45 -92 75 -279 212 -300 230 -303 261 -3 29 12
45 195 216 109 101 214 197 233 213 19 16 98 87 175 158 136 127 199 184 280
256 57 50 466 422 621 565 72 66 238 217 369 335 131 118 295 267 364 330 69
64 243 221 386 350 143 129 319 289 390 355 72 66 147 134 167 150 20 17 38
35 40 41 4 16 -73 104 -92 104 -8 0 -59 -37 -111 -82z"/>
<path d="M10260 9290 c-41 -33 -76 -64 -78 -68 -1 -5 4 -15 13 -22 12 -10 28
-2 100 51 48 37 83 70 82 79 -5 32 -44 18 -117 -40z"/>
<path d="M2150 9215 c-20 -24 -7 -38 84 -100 79 -54 88 -58 102 -43 22 21 16
28 -74 91 -101 71 -98 69 -112 52z"/>
<path d="M10528 8898 c-48 -29 -88 -56 -88 -60 0 -12 63 -108 71 -108 5 0 32
15 61 34 29 18 63 36 74 40 12 4 28 14 37 24 14 16 14 21 -11 67 -15 27 -34
51 -42 52 -8 2 -54 -21 -102 -49z"/>
<path d="M9691 8849 c-144 -37 -225 -105 -257 -215 -23 -80 -19 -85 73 -82
l77 3 8 40 c19 89 104 128 279 129 107 0 120 -2 173 -28 65 -32 86 -64 86
-128 0 -86 -48 -126 -193 -164 -105 -27 -155 -45 -238 -88 -160 -83 -230 -164
-257 -297 -9 -48 -12 -83 -6 -88 12 -11 845 6 856 17 5 5 8 36 6 68 l-3 59
-317 -4 c-232 -2 -318 0 -318 8 0 6 18 31 40 54 48 52 155 107 260 132 159 37
286 119 314 202 31 90 15 207 -38 276 -33 43 -123 92 -207 112 -90 21 -246 19
-338 -6z"/>
<path d="M1868 8760 c-16 -28 -28 -55 -28 -61 0 -5 15 -16 33 -24 17 -7 59
-29 91 -49 33 -20 65 -36 70 -36 11 0 66 97 66 115 0 14 -163 105 -186 105
-12 0 -29 -18 -46 -50z"/>
<path d="M2940 8695 c-83 -24 -136 -52 -185 -101 -154 -155 -175 -459 -45
-660 68 -104 171 -167 299 -183 325 -41 546 166 528 494 -7 128 -34 215 -92
294 -86 116 -179 162 -345 167 -73 3 -122 -1 -160 -11z m272 -156 c67 -25 116
-80 149 -168 18 -48 20 -72 17 -166 -5 -156 -45 -232 -148 -286 -39 -21 -59
-24 -145 -24 -112 0 -153 15 -211 77 -142 150 -114 476 48 559 86 44 189 47
290 8z"/>
<path d="M2343 8518 c4 -84 9 -268 12 -408 3 -140 8 -274 11 -297 l5 -43 76 0
76 0 -7 238 c-3 130 -9 333 -13 450 l-6 212 -80 0 -80 0 6 -152z"/>
<path d="M10815 8410 c-33 -16 -72 -34 -87 -39 -29 -10 -36 -29 -17 -48 8 -8
32 -1 89 26 43 21 88 41 100 44 27 7 23 41 -5 44 -11 1 -47 -11 -80 -27z"/>
<path d="M1647 8293 c-4 -3 -7 -14 -7 -23 0 -22 197 -107 212 -92 25 25 1 46
-91 84 -101 41 -104 42 -114 31z"/>
<path d="M10995 7922 c-95 -35 -127 -61 -93 -75 24 -9 203 58 206 78 7 34 -14
33 -113 -3z"/>
<path d="M1470 7796 c-7 -9 -10 -22 -7 -29 8 -21 204 -74 219 -59 21 21 0 37
-88 66 -49 16 -94 31 -100 33 -6 2 -17 -3 -24 -11z"/>
<path d="M11140 7425 c-109 -24 -110 -24 -110 -45 0 -10 3 -21 8 -23 4 -2 52
8 107 22 71 18 100 30 100 41 0 20 -28 21 -105 5z"/>
<path d="M1345 7279 c-4 -12 -3 -24 2 -29 7 -7 183 -45 208 -45 6 0 10 11 10
25 0 23 -6 26 -100 47 -55 12 -103 22 -107 22 -4 1 -10 -8 -13 -20z"/>
<path d="M11195 6908 c-75 -10 -96 -21 -78 -39 8 -8 40 -8 117 1 92 11 106 15
106 31 0 22 -27 23 -145 7z"/>
<path d="M10345 6823 c-155 -21 -287 -104 -316 -202 -19 -63 -11 -71 71 -71
l70 0 17 38 c14 28 32 44 78 67 58 29 65 30 190 30 141 0 186 -10 235 -52 24
-20 30 -33 30 -65 0 -53 -13 -74 -63 -100 -34 -17 -63 -22 -157 -25 -169 -6
-160 -1 -160 -78 0 -73 10 -82 83 -71 65 10 219 -10 266 -33 62 -32 83 -84 60
-150 -25 -72 -201 -115 -378 -93 -121 15 -187 50 -205 110 -7 20 -13 22 -87
22 -75 0 -79 -1 -79 -22 0 -43 47 -124 91 -160 88 -72 274 -109 449 -89 234
28 364 118 377 261 5 51 2 67 -22 116 -17 36 -41 65 -66 82 -21 15 -38 32 -39
38 0 6 12 21 26 35 82 77 90 202 18 296 -34 45 -146 99 -234 113 -63 9 -193
11 -255 3z"/>
<path d="M1276 6762 c-3 -5 -4 -17 0 -25 7 -18 210 -35 226 -19 19 19 0 42
-35 42 -19 0 -68 3 -109 6 -48 4 -77 3 -82 -4z"/>
<path d="M1993 6685 c-175 -40 -273 -141 -272 -280 1 -116 51 -195 158 -248
99 -50 162 -60 316 -54 142 5 201 20 272 69 23 15 44 28 47 28 13 0 4 -73 -15
-126 -29 -76 -76 -126 -147 -155 -49 -21 -74 -24 -172 -24 -160 0 -238 28
-285 102 -20 32 -21 32 -97 33 -93 0 -94 -3 -38 -88 76 -113 213 -181 385
-189 231 -12 410 83 481 255 23 55 28 86 32 175 11 267 -74 419 -271 489 -79
28 -297 35 -394 13z m360 -152 c27 -10 64 -32 83 -47 31 -25 34 -31 34 -81 0
-68 -26 -101 -112 -141 -59 -27 -71 -29 -193 -29 -123 0 -133 2 -188 28 -165
81 -137 232 53 286 60 17 267 7 323 -16z"/>
<path d="M11148 6430 c-1 -5 -1 -35 0 -65 l4 -56 106 3 107 3 3 63 3 62 -110
0 c-63 0 -111 -4 -113 -10z"/>
<path d="M1332 6293 l-73 -4 3 -62 3 -62 109 -3 c63 -2 112 1 115 7 4 5 4 36
1 68 l-5 58 -40 1 c-22 0 -73 -1 -113 -3z"/>
<path d="M11124 5875 c-11 -27 6 -33 119 -40 104 -7 107 -7 107 13 0 25 -11
29 -128 37 -80 6 -93 4 -98 -10z"/>
<path d="M1405 5736 c-90 -12 -107 -20 -98 -42 5 -14 18 -15 82 -9 129 11 142
15 139 39 -4 26 -18 27 -123 12z"/>
<path d="M11050 5371 c0 -22 -3 -21 124 -47 80 -16 105 -11 93 19 -3 9 -34 19
-84 26 -43 7 -90 15 -105 18 -23 5 -28 2 -28 -16z"/>
<path d="M1483 5228 c-66 -16 -83 -24 -83 -39 0 -10 4 -20 8 -23 9 -5 210 39
219 48 3 3 3 12 0 21 -8 19 -41 18 -144 -7z"/>
<path d="M10923 4885 c-3 -9 -3 -18 -1 -21 6 -5 184 -54 199 -54 6 0 9 8 7 17
-2 12 -31 26 -93 45 -106 33 -104 32 -112 13z"/>
<path d="M9753 4564 c-169 -158 -311 -292 -315 -298 -4 -6 -8 -40 -8 -75 l0
-64 320 5 319 6 3 -87 3 -86 54 -3 c100 -6 101 -4 101 93 l0 85 65 0 66 0 -3
68 -3 67 -65 0 -65 0 -5 285 -5 285 -77 3 -77 3 -308 -287z m315 -97 l4 -197
-216 0 c-119 0 -219 0 -223 -1 -31 -3 4 32 227 231 46 41 105 96 130 122 73
76 74 73 78 -155z"/>
<path d="M1650 4735 c-52 -19 -96 -39 -98 -44 -7 -20 28 -23 75 -7 27 8 68 22
93 29 32 10 45 19 45 32 0 10 -4 19 -10 21 -5 1 -53 -13 -105 -31z"/>
<path d="M2735 4763 c-136 -12 -237 -55 -287 -121 -66 -86 -70 -180 -12 -264
16 -22 34 -47 39 -56 7 -10 5 -17 -9 -26 -108 -65 -153 -181 -107 -281 23 -52
85 -112 139 -136 97 -42 159 -51 322 -46 134 3 166 8 239 31 135 45 211 130
211 238 -1 87 -40 149 -130 209 l-25 17 22 23 c54 58 75 150 51 220 -36 108
-130 169 -288 188 -46 6 -94 10 -105 9 -11 -1 -38 -3 -60 -5z m244 -157 c48
-25 70 -55 71 -93 1 -90 -60 -125 -227 -131 -127 -5 -191 7 -240 44 -60 46
-53 128 15 167 53 31 88 36 222 33 98 -2 132 -6 159 -20z m59 -400 c71 -36 93
-78 72 -139 -13 -36 -23 -46 -75 -72 -60 -30 -61 -30 -235 -30 -164 0 -178 1
-223 24 -60 30 -77 54 -77 111 0 51 17 73 78 104 56 28 110 35 262 32 135 -2
149 -4 198 -30z"/>
<path d="M10747 4423 c-4 -3 -7 -10 -7 -15 0 -13 189 -100 201 -92 22 13 6 37
-38 56 -27 11 -67 29 -90 39 -45 21 -56 23 -66 12z"/>
<path d="M1844 4260 c-88 -41 -97 -49 -84 -70 7 -11 22 -7 84 22 99 46 121 62
112 76 -11 17 -22 14 -112 -28z"/>
<path d="M10522 3965 c-21 -39 -27 -57 -18 -63 22 -18 176 -96 179 -91 8 10
57 98 57 103 0 5 -174 106 -183 106 -3 0 -19 -25 -35 -55z"/>
<path d="M2110 3871 c-108 -62 -130 -76 -130 -84 0 -11 59 -97 66 -97 13 0
174 95 174 102 0 15 -38 84 -52 95 -9 7 -25 3 -58 -16z"/>
<path d="M10257 3553 c-19 -19 0 -43 73 -91 87 -57 95 -59 104 -37 4 10 -15
29 -62 60 -37 25 -76 52 -88 60 -11 8 -24 12 -27 8z"/>
<path d="M2409 3407 c-111 -84 -113 -86 -100 -101 10 -12 20 -9 65 22 107 76
123 93 103 110 -9 8 -27 -1 -68 -31z"/>
<path d="M8420 3290 l-305 -5 -12 -80 c-16 -113 -36 -362 -29 -373 3 -5 29
-17 59 -27 l54 -18 34 26 c61 46 131 62 264 61 110 0 125 -2 177 -28 77 -37
98 -68 98 -144 0 -45 -5 -67 -22 -92 -57 -84 -225 -120 -392 -85 -94 20 -143
54 -170 117 -19 46 -23 49 -50 44 -15 -3 -46 -6 -67 -6 -34 0 -39 -3 -39 -22
0 -13 13 -50 29 -83 61 -129 240 -205 451 -192 149 10 243 45 331 124 55 50
72 102 68 211 -4 81 -7 95 -34 134 -36 51 -110 102 -180 125 -31 10 -98 18
-176 20 -106 4 -141 1 -210 -16 -45 -11 -84 -19 -86 -17 -3 2 -1 46 4 98 l8
93 105 6 c58 4 196 7 308 8 l202 1 0 65 0 65 -57 -2 c-32 -2 -195 -5 -363 -8z"/>
<path d="M3970 3210 c-130 -4 -145 -7 -144 -22 0 -10 1 -39 2 -65 l2 -46 325
7 c347 8 363 6 293 -39 -18 -11 -66 -59 -108 -106 -86 -99 -177 -262 -208
-375 -26 -95 -38 -219 -22 -229 6 -4 50 -4 96 0 l84 7 0 56 c1 134 68 337 149
451 66 94 168 192 229 220 l52 24 0 64 0 63 -302 -2 c-167 -1 -368 -5 -448 -8z"/>
<path d="M9935 3149 c-4 -6 4 -22 16 -36 41 -43 139 -114 149 -108 19 12 10
33 -28 59 -21 14 -53 42 -72 61 -35 36 -54 43 -65 24z"/>
<path d="M2711 2992 c-72 -68 -86 -92 -53 -92 23 1 157 134 148 149 -12 19
-22 13 -95 -57z"/>
<path d="M9585 2790 c-6 -10 66 -101 113 -143 20 -18 42 -16 42 3 0 12 -130
150 -141 150 -4 0 -11 -5 -14 -10z"/>
<path d="M3083 2641 c-60 -66 -74 -93 -54 -105 12 -8 154 151 146 164 -12 20
-31 8 -92 -59z"/>
<path d="M6310 2689 c-77 -10 -170 -42 -223 -77 -49 -33 -120 -128 -148 -200
-33 -83 -34 -267 -1 -367 62 -193 208 -285 452 -285 285 0 450 110 450 297 0
84 -22 135 -80 187 -79 71 -192 106 -345 106 -130 0 -223 -21 -297 -65 -33
-19 -61 -35 -64 -35 -12 0 -1 76 17 126 50 134 161 190 357 182 133 -5 205
-33 249 -97 28 -40 28 -40 96 -41 75 0 80 6 51 61 -77 149 -295 237 -514 208z
m272 -492 c87 -42 118 -79 118 -140 0 -62 -23 -92 -94 -127 -56 -28 -78 -33
-168 -37 -266 -14 -422 110 -306 243 60 68 153 96 300 90 78 -3 107 -9 150
-29z"/>
<path d="M9190 2466 c0 -16 118 -166 130 -166 26 0 15 29 -37 100 -54 73 -93
101 -93 66z"/>
<path d="M3491 2334 c-56 -80 -66 -106 -41 -111 22 -5 133 160 117 176 -6 6
-13 11 -16 11 -4 0 -30 -35 -60 -76z"/>
<path d="M8780 2200 c-25 -16 -45 -33 -45 -38 0 -12 99 -172 107 -172 10 0 97
54 98 61 0 10 -102 179 -109 179 -3 0 -26 -14 -51 -30z"/>
<path d="M3892 2093 c-62 -108 -63 -110 -49 -120 23 -18 97 -57 100 -52 12 15
97 173 97 179 0 9 -87 60 -101 60 -4 0 -26 -30 -47 -67z"/>
<path d="M8327 1963 c-3 -5 15 -50 38 -100 34 -71 47 -92 59 -87 21 8 21 13
-14 83 -17 33 -35 72 -40 86 -9 24 -34 34 -43 18z"/>
<path d="M4376 1824 c-30 -77 -35 -98 -24 -105 7 -5 15 -9 18 -9 6 0 81 170
83 190 1 8 -7 16 -18 18 -17 2 -26 -12 -59 -94z"/>
<path d="M7860 1773 c0 -27 61 -193 72 -193 20 0 17 31 -10 116 -19 61 -33 90
-45 92 -11 2 -17 -3 -17 -15z"/>
<path d="M4861 1653 c-29 -94 -29 -122 1 -111 15 6 71 184 63 199 -18 28 -36
3 -64 -88z"/>
<path d="M7378 1645 c-7 -7 32 -188 43 -199 6 -6 13 -6 20 1 8 8 5 37 -12 107
-20 85 -33 108 -51 91z"/>
<path d="M5376 1622 c-3 -5 -13 -50 -22 -101 -13 -69 -14 -95 -5 -104 7 -7 14
-8 21 -1 11 11 50 195 44 206 -7 10 -31 10 -38 0z"/>
<path d="M6877 1563 c-6 -11 22 -196 31 -205 4 -4 13 -4 19 0 20 13 -7 206
-29 210 -9 2 -18 -1 -21 -5z"/>
<path d="M5876 1552 c-2 -4 -7 -53 -11 -109 -7 -90 -6 -103 8 -103 23 0 24 5
32 111 6 82 4 97 -9 102 -8 3 -17 3 -20 -1z"/>
<path d="M6330 1430 l0 -110 65 0 66 0 -3 108 -3 107 -62 3 -63 3 0 -111z"/>
</g>
</svg>
