<?xml version="1.0" standalone="no"?>
<!DOCTYPE svg PUBLIC "-//W3C//DTD SVG 20010904//EN"
 "http://www.w3.org/TR/2001/REC-SVG-20010904/DTD/svg10.dtd">
<svg version="1.0" xmlns="http://www.w3.org/2000/svg"
 width="1148.000000pt" height="744.000000pt" viewBox="0 0 1148.000000 744.000000"
 preserveAspectRatio="xMidYMid meet">
<metadata>
Created by potrace 1.16, written by Peter Selinger 2001-2019
</metadata>
<g transform="translate(0.000000,744.000000) scale(0.100000,-0.100000)"
fill="#000000" stroke="none">
<path d="M1558 6890 c-50 -27 -96 -85 -113 -145 -29 -100 25 -209 126 -254
112 -51 234 -1 288 119 25 54 26 81 6 146 -18 60 -82 129 -133 144 -58 16
-133 11 -174 -10z m67 -91 c12 -12 62 -11 70 1 10 16 78 11 101 -8 54 -45 48
-161 -11 -204 -17 -13 -89 -8 -108 6 -15 12 -23 11 -56 -7 -32 -18 -45 -20
-77 -12 -52 13 -57 47 -15 96 35 39 40 69 12 69 -22 0 -33 33 -17 54 19 25 76
28 101 5z"/>
<path d="M8584 4748 c-5 -8 0 -9 14 -6 12 4 25 2 28 -3 3 -5 -5 -9 -18 -9 -22
0 -21 -1 6 -15 23 -12 77 -15 285 -15 141 0 285 3 321 6 59 6 65 8 66 30 l2
24 -348 0 c-254 0 -351 -3 -356 -12z"/>
<path d="M8640 4016 c0 -5 -13 -6 -30 -2 -25 4 -30 2 -30 -14 0 -21 19 -37 29
-24 3 5 154 7 343 4 185 -3 334 -2 331 3 -2 4 16 7 40 7 49 0 62 7 44 24 -15
13 -727 16 -727 2z"/>
<path d="M3103 3806 c19 -14 23 -46 6 -46 -5 0 -8 4 -5 9 7 11 -49 25 -63 16
-6 -3 -9 -25 -7 -48 2 -23 -1 -48 -8 -56 -8 -12 -8 -13 2 -7 8 5 12 0 12 -14
0 -16 -5 -20 -25 -16 -22 4 -25 2 -20 -14 4 -13 1 -18 -10 -16 -9 1 -20 7 -23
13 -4 6 -39 10 -84 9 -84 -1 -108 -15 -30 -18 l47 -1 -45 -6 c-31 -4 -48 -2
-53 7 -4 6 -24 12 -42 12 -24 0 -35 5 -35 15 0 8 5 15 11 15 5 0 7 5 4 10 -9
15 -25 12 -25 -5 0 -10 -11 -15 -35 -15 -19 0 -35 -5 -35 -11 0 -5 8 -9 18 -8
21 3 52 -10 52 -22 0 -12 -47 -11 -52 1 -4 13 -98 41 -98 29 0 -5 -10 -3 -22
5 -13 8 -36 14 -52 14 -18 0 -24 -3 -15 -9 7 -4 16 -6 20 -3 4 2 6 -7 3 -20
-3 -17 1 -26 13 -29 10 -3 -4 -5 -30 -6 -30 -1 -46 3 -42 9 3 6 15 10 26 10
10 0 19 7 19 15 0 12 -10 15 -46 13 -44 -3 -45 -4 -40 -32 3 -16 6 -137 6
-270 l0 -241 61 3 c70 4 126 -6 95 -17 -10 -4 -49 -7 -87 -6 -60 1 -69 -1 -69
-17 0 -10 -4 -18 -10 -18 -5 0 -7 7 -4 15 4 8 1 15 -5 15 -6 0 -11 -9 -11 -20
0 -19 7 -20 106 -20 77 0 103 3 98 12 -5 7 -3 8 7 2 20 -13 599 -12 592 1 -3
5 0 4 8 -2 16 -15 165 -18 174 -4 3 6 -4 15 -15 21 -21 11 -28 40 -10 40 6 0
10 116 10 328 0 243 3 331 12 340 10 10 7 16 -12 30 -31 21 -46 22 -42 2 2
-11 -2 -10 -12 4 -13 16 -23 17 -70 11 -51 -6 -56 -9 -56 -31 0 -14 -4 -22
-10 -19 -5 3 -10 14 -10 25 0 17 -19 30 -43 30 -7 0 -4 -7 6 -14z"/>
<path d="M7091 3291 c-6 -10 -8 -21 -4 -25 3 -3 5 -37 5 -76 -2 -66 12 -96 21
-47 4 19 4 18 6 -5 1 -30 -9 -34 -41 -17 -17 9 -24 8 -33 -5 -10 -13 -35 -16
-146 -17 -74 0 -143 -4 -153 -8 -25 -10 -66 -2 -66 13 0 16 -79 39 -94 27 -6
-5 -45 -18 -86 -29 -80 -21 -98 -42 -45 -53 27 -6 26 -7 -12 -8 -41 -1 -43 0
-43 29 0 17 5 30 10 30 6 0 10 5 10 10 0 6 -11 10 -24 10 -16 0 -27 7 -31 20
-3 11 -11 20 -16 20 -6 0 -7 -5 -3 -12 4 -7 3 -8 -4 -4 -7 4 -12 3 -12 -3 0
-5 8 -15 18 -20 15 -9 15 -10 -5 -11 -26 0 -31 27 -10 60 10 17 9 22 -2 30
-12 7 -12 11 -2 24 7 8 10 20 6 26 -3 5 -1 10 4 10 6 0 11 10 11 23 0 15 -3
18 -8 9 -6 -9 -24 -11 -60 -7 l-52 5 -1 -47 c0 -37 -2 -43 -9 -28 -6 14 -8 8
-4 -20 3 -22 6 -185 7 -362 1 -177 4 -324 7 -327 8 -7 960 -9 967 -2 4 3 1 6
-5 6 -17 0 -17 597 0 618 10 12 10 14 1 8 -9 -5 -13 0 -13 14 0 14 -4 19 -12
14 -8 -5 -9 -2 -3 12 5 10 10 38 13 61 2 24 8 40 13 37 5 -3 9 1 9 10 0 13 -3
13 -29 0 -17 -8 -33 -24 -36 -34 -9 -29 -25 -24 -24 8 0 23 2 24 8 8 7 -18 8
-19 14 -2 7 18 -8 46 -24 46 -5 0 -13 -8 -18 -19z"/>
<path d="M4130 3131 c0 -9 -9 -12 -30 -9 -26 4 -29 2 -24 -15 5 -16 3 -19 -11
-13 -23 8 -145 -4 -145 -15 0 -5 16 -9 35 -9 37 0 41 -5 25 -30 -9 -13 -10
-13 -10 0 0 13 -1 13 -10 0 -9 -13 -10 -13 -10 0 0 13 -1 13 -10 0 -9 -13 -10
-13 -10 0 0 9 -3 11 -8 5 -8 -12 -92 -15 -92 -3 0 4 -11 8 -25 8 -14 0 -25 -4
-25 -8 0 -4 -11 -8 -25 -8 -14 0 -25 5 -25 11 0 6 -3 6 -8 -1 -5 -8 -12 -5
-23 10 -16 21 -16 21 48 18 38 -2 70 1 76 7 8 8 -10 11 -65 11 -42 0 -83 3
-92 6 -12 5 -16 0 -16 -20 0 -14 -6 -26 -12 -26 -10 0 -13 -60 -13 -265 0
-148 4 -265 9 -265 5 0 15 -8 22 -17 13 -17 13 -17 14 2 0 14 3 16 8 7 7 -10
110 -12 486 -10 l477 3 3 250 c2 138 1 275 -1 307 -5 53 -7 56 -35 60 -16 3
-35 -1 -42 -8 -18 -17 -86 -35 -86 -23 0 7 -36 8 -97 5 -144 -8 -143 -7 -143
-17 0 -6 34 -8 80 -6 44 2 80 0 80 -4 0 -5 -18 -9 -39 -9 -22 0 -46 -7 -54
-15 -12 -11 -17 -12 -20 -2 -4 9 -6 9 -6 -1 -1 -10 -6 -9 -18 4 -16 15 -17 15
-24 -2 -5 -13 -8 -15 -8 -4 -1 13 -2 13 -11 0 -9 -13 -10 -13 -10 0 0 13 -1
13 -10 0 -9 -13 -10 -13 -10 0 0 10 -3 11 -8 4 -11 -18 -36 -22 -49 -8 -18 17
-16 24 5 24 9 1 28 7 42 15 24 13 24 14 5 21 -11 5 -28 17 -37 29 -11 13 -17
15 -18 6z"/>
<path d="M3136 2171 c-3 -5 -27 -6 -52 -3 l-47 5 6 -54 c11 -90 -12 -133 -35
-67 l-12 33 -7 -28 c-10 -38 -3 -54 29 -63 37 -11 102 -12 96 -2 -3 4 27 8 65
8 41 0 71 -4 71 -10 0 -5 7 -10 15 -10 8 0 15 5 15 11 0 6 7 9 15 5 9 -3 15 0
15 8 0 8 14 19 30 25 27 9 30 14 29 48 -1 21 -3 30 -6 21 -2 -10 -9 -18 -14
-18 -14 0 -11 77 4 84 6 3 2 3 -11 0 -13 -3 -30 0 -38 7 -12 10 -17 10 -23 1
-5 -9 -15 -9 -39 0 -25 10 -35 10 -40 1 -5 -8 -13 -9 -22 -3 -19 12 -37 13
-44 1z"/>
<path d="M2950 1805 c-7 -9 -20 -13 -28 -10 -8 3 -23 -2 -33 -11 -22 -20 -78
-21 -90 -2 -6 9 -44 14 -136 15 -70 2 -165 4 -209 6 l-82 3 -2 -215 c-2 -119
-4 -236 -4 -261 0 -25 1 -138 2 -252 l2 -208 475 0 c418 0 474 -2 469 -15 -9
-22 19 -19 39 5 14 16 14 20 2 20 -13 0 -15 61 -17 445 -2 353 0 446 10 450 9
3 7 10 -8 25 -15 15 -32 20 -72 19 -52 -1 -52 -1 -24 -13 22 -10 25 -14 12
-19 -9 -4 -23 -3 -33 0 -11 4 -14 3 -9 -6 4 -6 23 -10 42 -9 39 2 58 -11 48
-35 -8 -22 -25 -21 -50 2 -17 15 -43 20 -154 25 -132 7 -181 15 -104 17 48 2
34 2 127 -6 75 -7 77 -7 77 15 0 19 -4 21 -22 15 -29 -9 -35 -9 -138 -7 -59 2
-80 5 -70 12 8 5 10 10 4 10 -6 0 -17 -7 -24 -15z m-260 -35 c43 -4 4 -6 -112
-5 l-178 2 0 -24 0 -23 173 -2 172 -2 -172 -3 c-95 -2 -173 -7 -173 -11 0 -4
80 -5 177 -2 98 3 188 4 201 2 27 -4 29 -22 2 -22 -11 0 -20 6 -20 13 0 8 -3
8 -8 2 -4 -7 -71 -11 -177 -10 l-170 0 -5 -405 -5 -405 -3 446 c-1 245 1 449
5 452 8 9 208 7 293 -3z"/>
<path d="M6564 1732 c-8 -5 -8 -15 -3 -31 9 -23 10 -23 30 -5 13 12 23 15 27
7 4 -6 23 -14 42 -18 19 -5 30 -10 23 -12 -6 -2 -29 0 -49 6 -26 7 -42 7 -51
0 -9 -8 -17 -7 -28 5 -18 18 -36 20 -50 7 -6 -5 -29 -12 -52 -16 -35 -5 -43
-3 -52 13 -8 16 -23 19 -82 21 -40 1 -80 6 -88 11 -10 5 -24 4 -34 -1 -15 -9
-17 -30 -17 -184 0 -110 4 -175 10 -175 6 0 10 60 10 160 0 88 3 160 8 160 4
0 6 -104 4 -232 -3 -252 10 -344 18 -133 l6 130 2 -145 2 -145 397 0 c308 0
397 -3 400 -12 4 -10 -80 -13 -396 -13 -381 0 -401 1 -410 19 -6 10 -7 21 -4
25 3 3 2 6 -4 6 -5 0 -9 -17 -8 -37 l1 -37 44 2 c25 2 241 5 480 6 239 2 436
4 437 5 1 1 2 127 3 281 0 153 3 286 6 294 7 18 -16 33 -26 16 -5 -8 -17 -10
-33 -6 -14 3 -33 3 -41 0 -15 -6 -15 -8 1 -20 17 -12 17 -13 -1 -10 -11 2 -22
9 -24 17 -3 8 -10 17 -16 21 -17 11 -84 9 -91 -2 -4 -6 -15 -8 -26 -5 -11 4
-19 2 -19 -4 0 -6 8 -11 18 -12 15 0 15 -1 -2 -8 -26 -10 -73 -2 -55 10 7 4
17 5 21 3 4 -3 8 0 8 5 0 10 -77 17 -120 12 -8 -1 -30 -3 -48 -5 -17 -2 -35 0
-38 6 -3 5 -16 7 -29 4 -15 -4 -25 -1 -29 9 -6 16 -52 20 -72 7z"/>
<path d="M4528 1623 c-10 -2 -18 -9 -18 -14 0 -6 -4 -8 -9 -5 -5 3 -11 -1 -15
-9 -3 -8 -13 -15 -21 -15 -9 0 -13 5 -10 10 4 6 -6 10 -24 10 -23 0 -31 -5
-34 -22 l-4 -23 -2 23 c0 12 -7 22 -13 22 -10 0 -12 -19 -8 -74 6 -91 20 -111
21 -30 l0 59 16 -37 c8 -21 19 -38 23 -38 5 0 6 -9 3 -20 -3 -11 -9 -17 -14
-14 -5 3 -6 -3 -2 -12 5 -13 3 -16 -9 -11 -13 4 -16 1 -12 -19 3 -19 0 -24
-16 -24 -12 0 -18 5 -15 10 4 6 11 8 16 5 5 -3 6 1 3 9 -3 9 -14 16 -24 16
-11 0 -22 5 -25 10 -3 6 -1 10 4 10 6 0 11 5 11 11 0 8 -4 8 -14 0 -7 -6 -12
-23 -10 -39 2 -15 1 -19 -2 -9 -6 18 -64 25 -64 7 0 -5 5 -10 10 -10 6 0 10
-4 10 -10 0 -5 -9 -10 -20 -10 -11 0 -20 5 -20 10 0 7 -6 7 -19 0 -30 -16 -34
-12 -12 11 11 12 24 18 30 15 7 -4 8 -1 5 8 -7 18 -84 23 -84 6 0 -5 -12 -10
-27 -10 -25 -1 -26 -2 -10 -14 22 -17 22 -26 -3 -26 -11 0 -20 5 -20 10 0 6
-9 10 -21 10 -11 0 -17 5 -14 10 4 6 -8 10 -29 10 -20 0 -36 5 -36 10 0 6 -9
10 -19 10 -11 0 -21 6 -24 13 -2 6 -7 9 -11 5 -4 -3 -2 -15 5 -27 7 -11 9 -24
5 -28 -5 -4 -11 -2 -13 5 -5 14 -43 16 -43 2 0 -5 -5 -10 -11 -10 -6 0 -9 9
-6 20 4 16 0 20 -19 20 -13 0 -24 4 -24 9 0 5 -9 11 -20 14 -14 3 -20 14 -20
31 0 14 -5 26 -11 26 -7 0 -8 14 -4 41 5 29 4 40 -4 35 -6 -4 -11 0 -11 9 0
10 -5 13 -12 9 -7 -5 -22 -8 -33 -8 -23 -1 -25 -5 -25 -47 0 -17 4 -28 10 -24
6 3 10 1 10 -4 0 -6 -9 -11 -19 -11 -14 0 -19 6 -16 18 2 10 0 34 -5 53 -4 19
-8 -145 -9 -369 0 -222 3 -401 8 -398 12 8 828 8 887 1 48 -7 49 -6 50 19 2
23 -2 26 -28 26 -20 0 -29 -4 -25 -12 3 -10 -88 -12 -439 -10 -384 2 -444 4
-444 17 0 13 62 15 470 15 l470 0 0 361 0 361 -25 -6 c-14 -3 -37 -9 -51 -12
-20 -5 -25 -3 -22 7 3 8 13 16 23 17 10 3 15 0 11 -7 -4 -7 -1 -9 8 -5 13 5
13 8 1 20 -7 8 -15 13 -17 13 -2 -1 -11 -3 -20 -6z"/>
<path d="M2375 850 c-4 -7 152 -10 459 -10 304 0 466 3 466 10 0 7 -160 10
-459 10 -296 0 -462 -4 -466 -10z"/>
</g>
</svg>
